<svg width="335" height="110" viewBox="0 0 335 110" fill="none" xmlns="http://www.w3.org/2000/svg">
<path d="M68.3154 83.3643H74.1689C77.5173 83.3643 79.1914 84.5085 79.1914 86.7969C79.1914 88.4349 78.6012 89.7116 77.4209 90.627C76.2646 91.5423 74.6266 92 72.5068 92H65.6416C63.1364 92 61.1973 91.4821 59.8242 90.4463C58.4753 89.3864 57.8008 87.8809 57.8008 85.9297C57.8008 84.6771 58.3066 82.8464 59.3184 80.4375L68.6045 58.6855L61.6309 66.165C59.9688 67.9717 58.391 68.875 56.8975 68.875C54.9463 68.875 53.6816 67.5381 53.1035 64.8643L52.0918 60.3838L43.2754 82.1357C40.2402 89.6032 37.9277 94.6738 36.3379 97.3477C34.748 100.046 32.6885 102.382 30.1592 104.357C26.4977 107.2 22.2943 108.621 17.5488 108.621C12.4902 108.621 8.38314 107.019 5.22754 103.815C2.07194 100.636 0.494141 96.4805 0.494141 91.3496C0.494141 84.6289 2.97526 78.7152 7.9375 73.6084C10.6113 70.8864 13.9476 68.6943 17.9463 67.0322C21.945 65.346 25.8835 64.5029 29.7617 64.5029C31.737 64.5029 33.3148 64.9245 34.4951 65.7676C35.6755 66.6107 36.2656 67.7308 36.2656 69.1279C36.2656 70.5973 35.6393 71.7897 34.3867 72.7051C33.6641 73.235 32.2669 73.5964 30.1953 73.7891C25.4017 74.2227 21.5355 75.3187 18.5967 77.0771C16.1637 78.5465 14.2246 80.4616 12.7793 82.8223C11.3581 85.1829 10.6475 87.652 10.6475 90.2295C10.6475 92.9756 11.346 95.1315 12.7432 96.6973C14.1403 98.2871 16.0553 99.082 18.4883 99.082C21.403 99.082 23.9323 97.8294 26.0762 95.3242C28.2441 92.8431 30.6169 88.4469 33.1943 82.1357L47.5391 46.834C48.7917 43.7266 50.4779 42.1729 52.5977 42.1729C53.9466 42.1729 55.0065 42.6064 55.7773 43.4736C56.5723 44.3408 57.2588 45.8584 57.8369 48.0264L60.041 56.3369L70.8809 45.6777C73.2656 43.3411 75.4938 42.1729 77.5654 42.1729C79.0107 42.1729 80.2272 42.6185 81.2148 43.5098C82.2266 44.377 82.7324 45.4368 82.7324 46.6895C82.7324 47.4844 82.5397 48.3516 82.1543 49.291L81.3232 51.3145L68.3154 83.3643ZM99.8955 63.8525C103.388 63.8525 106.255 64.9606 108.495 67.1768C110.759 69.3929 111.892 72.2113 111.892 75.6318C111.892 78.2093 111.301 80.7747 110.121 83.3281C108.941 85.8574 107.411 87.8809 105.532 89.3984C104.28 90.3861 102.979 91.0726 101.63 91.458C100.305 91.8193 98.4382 92 96.0293 92C92.1029 92 89.4531 91.5303 88.0801 90.5908C84.8522 88.3747 83.2383 85.0986 83.2383 80.7627C83.2383 76.1859 84.8883 72.2233 88.1885 68.875C91.4886 65.5267 95.391 63.8525 99.8955 63.8525ZM99.0283 71.5488C97.2458 71.5488 95.6198 72.4281 94.1504 74.1865C92.681 75.945 91.9463 77.8841 91.9463 80.0039C91.9463 82.7982 93.512 84.1953 96.6436 84.1953C98.4743 84.1953 99.8835 83.6292 100.871 82.4971C102.509 80.6423 103.328 78.5225 103.328 76.1377C103.328 74.7646 102.931 73.6566 102.136 72.8135C101.341 71.9704 100.305 71.5488 99.0283 71.5488ZM122.912 79.2812L131.295 67.8633L131.945 66.8877C133.342 64.8643 134.908 63.8525 136.643 63.8525C137.775 63.8525 138.702 64.2139 139.425 64.9365C140.147 65.6351 140.509 66.5384 140.509 67.6465C140.509 68.8509 139.786 70.3926 138.341 72.2715L124.972 89.5791C123.478 91.5303 121.72 92.5059 119.696 92.5059C117.986 92.5059 116.637 91.9157 115.649 90.7354C114.662 89.5309 114.168 87.8929 114.168 85.8213C114.168 85.3877 114.18 85.0384 114.204 84.7734L115.505 70.3564C115.674 68.4053 116.191 66.9238 117.059 65.9121C117.95 64.8763 119.142 64.3584 120.636 64.3584C122.924 64.3584 124.068 65.5146 124.068 67.8271C124.068 68.1644 124.02 68.7425 123.924 69.5615L122.912 79.2812ZM148.711 84.123H152.794C155.829 84.123 157.347 85.195 157.347 87.3389C157.347 88.8083 156.805 89.9525 155.721 90.7715C154.661 91.5905 153.167 92 151.24 92H145.495C143.375 92 141.701 91.5664 140.473 90.6992C139.268 89.832 138.666 88.6517 138.666 87.1582C138.666 86.3633 138.919 85.3516 139.425 84.123L145.387 69.4531L145.784 68.4414C146.892 65.7194 148.675 64.3584 151.132 64.3584C152.144 64.3584 153.011 64.6956 153.733 65.3701C154.48 66.0446 154.854 66.8516 154.854 67.791C154.854 68.5618 154.528 69.7422 153.878 71.332L148.711 84.123ZM153.48 52.832C154.878 52.832 156.058 53.3258 157.021 54.3135C158.009 55.277 158.503 56.4574 158.503 57.8545C158.503 59.2516 158.009 60.444 157.021 61.4316C156.058 62.3952 154.878 62.877 153.48 62.877C152.083 62.877 150.891 62.3952 149.903 61.4316C148.94 60.444 148.458 59.2516 148.458 57.8545C148.458 56.4574 148.94 55.277 149.903 54.3135C150.891 53.3258 152.083 52.832 153.48 52.832ZM167.428 81.4131C167.428 83.2197 168.789 84.123 171.511 84.123H182.242C185.277 84.123 186.795 85.195 186.795 87.3389C186.795 88.8083 186.253 89.9525 185.169 90.7715C184.109 91.5905 182.616 92 180.688 92H170.463C166.657 92 163.754 91.0605 161.755 89.1816C159.78 87.3027 158.792 84.5566 158.792 80.9434C158.792 76.2943 160.358 72.2835 163.489 68.9111C166.645 65.5387 170.391 63.8525 174.727 63.8525C177.882 63.8525 180.411 64.6836 182.314 66.3457C184.242 67.9837 185.205 70.1517 185.205 72.8496C185.205 76.1016 183.88 78.5104 181.23 80.0762C179.761 80.9674 177.569 81.4131 174.654 81.4131H167.428ZM169.162 74.8369H173.137C175.714 74.8369 176.967 74.2708 176.895 73.1387C176.822 71.862 175.991 71.2236 174.401 71.2236C172.185 71.2236 170.439 72.4281 169.162 74.8369ZM251.906 73.5L247.896 83.3643H254.146H255.086C257.784 83.3643 259.133 84.5446 259.133 86.9053C259.133 88.4951 258.543 89.7477 257.362 90.6631C256.182 91.5544 254.544 92 252.448 92H245.041C242.704 92 240.85 91.4701 239.477 90.4102C238.104 89.3262 237.417 87.8568 237.417 86.002C237.417 84.8457 237.694 83.5931 238.248 82.2441L238.826 80.835L241.825 73.5H230.299L223.253 90.8076C218.411 102.756 211.185 108.729 201.573 108.729C196.466 108.729 192.251 107.128 188.927 103.924C185.627 100.744 183.977 96.6852 183.977 91.7471C183.977 87.9411 184.94 84.3037 186.867 80.835C188.794 77.3662 191.516 74.3792 195.033 71.874C197.996 69.7783 201.441 68.1162 205.367 66.8877C209.318 65.6592 213.196 65.0449 217.002 65.0449L222.133 64.9004L223.723 64.8643L230.769 47.5566L231.166 46.5088C232.37 43.6182 234.273 42.1729 236.875 42.1729C238.055 42.1729 239.043 42.5342 239.838 43.2568C240.633 43.9554 241.03 44.8105 241.03 45.8223C241.03 46.6413 240.693 47.8818 240.019 49.5439L233.804 64.8643H245.33L252.304 47.7012L252.737 46.6172C253.966 43.6543 255.893 42.1729 258.519 42.1729C259.651 42.1729 260.614 42.5342 261.409 43.2568C262.204 43.9795 262.602 44.8708 262.602 45.9307C262.602 46.7497 262.252 48.0264 261.554 49.7607L255.411 64.8643H258.193H259.169C261.843 64.8643 263.18 66.0446 263.18 68.4053C263.18 69.9951 262.59 71.2477 261.409 72.1631C260.229 73.0544 258.603 73.5 256.531 73.5H251.906ZM220.218 73.5H218.267C211.136 73.5 205.439 75.126 201.176 78.3779C198.96 80.0641 197.213 82.0033 195.937 84.1953C194.66 86.3874 194.021 88.5433 194.021 90.6631C194.021 93.1683 194.78 95.2399 196.298 96.8779C197.815 98.54 199.73 99.3711 202.043 99.3711C207.15 99.3711 211.377 95.2399 214.726 86.9775L220.218 73.5ZM290.026 84.123H294.218C295.88 84.123 297.06 84.376 297.759 84.8818C298.457 85.3636 298.807 86.1706 298.807 87.3027C298.807 88.7721 298.265 89.9284 297.181 90.7715C296.121 91.5905 294.627 92 292.7 92H286.232C284.209 92 282.86 91.2171 282.186 89.6514C280.861 91.2171 279.199 92 277.199 92H271.924C269.804 92 268.046 91.3376 266.648 90.0127C265.251 88.6878 264.553 87.0137 264.553 84.9902C264.553 83.834 264.866 82.485 265.492 80.9434L270.406 68.875C271.779 65.5267 273.658 63.8525 276.043 63.8525C277.079 63.8525 277.958 64.1898 278.681 64.8643C279.403 65.5146 279.765 66.3216 279.765 67.2852C279.765 68.0078 279.572 68.8389 279.187 69.7783L278.789 70.7539L274.995 80.04L274.598 81.124C274.381 81.7503 274.26 82.2201 274.236 82.5332C274.188 83.6172 274.887 84.1592 276.332 84.1592C279.319 84.1592 281.306 82.9548 282.294 80.5459L286.811 69.417C288.16 66.0446 290.062 64.3584 292.52 64.3584C293.531 64.3584 294.398 64.6956 295.121 65.3701C295.844 66.0446 296.205 66.8516 296.205 67.791C296.205 68.5378 295.892 69.694 295.266 71.2598L290.026 84.123ZM318.102 64.3584C319.186 64.0212 320.149 63.8525 320.992 63.8525C323.786 63.8525 326.051 64.9004 327.785 66.9961C329.52 69.0677 330.387 71.7656 330.387 75.0898C330.387 81.5215 327.906 86.5319 322.943 90.1211C321.209 91.3737 319.402 92 317.523 92H314.091C311.706 92 309.671 91.1449 307.984 89.4346C306.973 91.1449 305.383 92 303.215 92C302.179 92 301.3 91.6628 300.577 90.9883C299.854 90.3138 299.493 89.4948 299.493 88.5312C299.493 87.8086 299.686 86.9775 300.071 86.0381L300.469 85.0625L315.608 47.7373L316.006 46.7256C317.138 44.0277 318.884 42.6787 321.245 42.6787C322.329 42.6787 323.232 43.016 323.955 43.6904C324.702 44.3408 325.075 45.1478 325.075 46.1113C325.075 46.8581 324.882 47.6891 324.497 48.6045L324.1 49.6162L318.102 64.3584ZM310.911 82.0635C312.116 83.6051 313.525 84.376 315.139 84.376C316.295 84.376 317.271 84.0508 318.065 83.4004C319.174 82.5091 320.137 81.1842 320.956 79.4258C321.799 77.6673 322.221 76.0895 322.221 74.6924C322.221 73.6084 321.908 72.7292 321.281 72.0547C320.655 71.3561 319.836 71.0068 318.824 71.0068C316.536 71.0068 314.705 72.7051 313.332 76.1016L310.911 82.0635Z" fill="#E8008B"/>
<g filter="url(#filter0_d_4_7)">
<path d="M127.421 59.5583H104.511C93.0562 59.5583 89.25 53.4333 89.25 47.2792V22.7208C89.25 13.5042 93.0562 10.4417 104.511 10.4417H127.421C138.876 10.4417 142.682 13.5042 142.682 22.7208V47.2792C142.682 56.4958 138.84 59.5583 127.421 59.5583V59.5583Z" fill="#E8008B"/>
</g>
<path d="M152.76 49.875L142.682 44.1875V25.7833L152.76 20.0958C157.69 17.325 161.75 19.0167 161.75 23.8875V46.1125C161.75 50.9833 157.69 52.675 152.76 49.875V49.875ZM123.688 32.0833C125.13 32.0833 126.513 31.6224 127.532 30.8019C128.552 29.9815 129.125 28.8687 129.125 27.7083C129.125 26.548 128.552 25.4352 127.532 24.6147C126.513 23.7943 125.13 23.3333 123.688 23.3333C122.245 23.3333 120.862 23.7943 119.843 24.6147C118.823 25.4352 118.25 26.548 118.25 27.7083C118.25 28.8687 118.823 29.9815 119.843 30.8019C120.862 31.6224 122.245 32.0833 123.688 32.0833Z" fill="#750EC7"/>
<defs>
<filter id="filter0_d_4_7" x="85.25" y="10.4417" width="61.4325" height="57.1167" filterUnits="userSpaceOnUse" color-interpolation-filters="sRGB">
<feFlood flood-opacity="0" result="BackgroundImageFix"/>
<feColorMatrix in="SourceAlpha" type="matrix" values="0 0 0 0 0 0 0 0 0 0 0 0 0 0 0 0 0 0 127 0" result="hardAlpha"/>
<feOffset dy="4"/>
<feGaussianBlur stdDeviation="2"/>
<feComposite in2="hardAlpha" operator="out"/>
<feColorMatrix type="matrix" values="0 0 0 0 0 0 0 0 0 0 0 0 0 0 0 0 0 0 0.25 0"/>
<feBlend mode="normal" in2="BackgroundImageFix" result="effect1_dropShadow_4_7"/>
<feBlend mode="normal" in="SourceGraphic" in2="effect1_dropShadow_4_7" result="shape"/>
</filter>
</defs>
</svg>
